PathFileType	4	(X/Y/Z)	7_2_88_p0_0-163.trc
DataRate	CameraRate	NumFrames	NumMarkers	Units	OrigDataRate	OrigDataStartFrame	OrigNumFrames
56.0	56.0	6	27	m	56.0	41	164
Frame#	Time	RHip			RKnee			RAnkle			RBigToe			RSmallToe			RHeel			LHip			LKnee			LAnkle			LBigToe			LSmallToe			LHeel			Neck			Head			Nose			RShoulder			RElbow			RWrist			RThumb			RIndex			RPinky			LShoulder			LElbow			LWrist			LThumb			LIndex			LPinky			
		X1	Y1	Z1	X2	Y2	Z2	X3	Y3	Z3	X4	Y4	Z4	X5	Y5	Z5	X6	Y6	Z6	X7	Y7	Z7	X8	Y8	Z8	X9	Y9	Z9	X10	Y10	Z10	X11	Y11	Z11	X12	Y12	Z12	X13	Y13	Z13	X14	Y14	Z14	X15	Y15	Z15	X16	Y16	Z16	X17	Y17	Z17	X18	Y18	Z18	X19	Y19	Z19	X20	Y20	Z20	X21	Y21	Z21	X22	Y22	Z22	X23	Y23	Z23	X24	Y24	Z24	X25	Y25	Z25	X26	Y26	Z26	X27	Y27	Z27	
41	0.7321428571428571	0.3000419579988449	0.33120856305078	1.2280287164296946	0.31332285900894163	0.2972386590280586	1.6009206957826505	0.28657795465612074	0.3248039989620886	2.0224138951454758	0.25785067503002856	0.10104710546034146	1.9948087714594174	0.3203794602669322	0.14042126417555748	2.008525718096502	0.2695526266122629	0.3498481802019632	2.094963931148787	0.07867253402136311	0.34417965954811186	1.2456971063116662	0.09823838728377986	0.31754802538063137	1.614657701513942	0.1330081266361778	0.339068096816606	2.0466868958390907	0.11025804514246577	0.11229936747699114	2.02577783113253	0.05700003666040002	0.16944808376228074	2.016721394971638	0.14499750963008798	0.35065407563338286	2.081837332153033	0.18379652184684445	0.37982282638813186	0.6222198753733992	0.19447686468800676	0.3614964305964495	0.3688407458944501	0.1938463458270662	0.3067432809626067	0.4979370635076134	0.3686589363890613	0.38793978770492005	0.7180784251048299	0.4522839752456839	0.378711819940884	0.9681726837711427	0.44932131696392863	0.2043524948464984	1.127797001188481	0.4117540553393964	0.04303845742414441	1.1650499293395422	0.4291952100456689	0.03935812271716747	1.1918131185299683	0.4531822825927632	0.18308544849611544	1.2562862914324238	0.028966523672632184	0.3895582096827845	0.715811130868166	-0.038418959394205504	0.3777298112742429	0.9807274299559042	-0.042925613769912885	0.2948476167962972	1.222116490495058	0.030204901646854868	0.23651070766907148	1.2925031542428138	0.013804278341994707	0.20999609043963705	1.3116538021422215	-0.04124769909242862	0.2764978773450461	1.3500133551829256
42	0.75	0.30052964824959433	0.3316006668518524	1.2243931129723746	0.3134282412389889	0.29741291405776177	1.6009140925189749	0.2864304370643151	0.32444580206282225	2.0222342282208867	0.2579065294065976	0.10085295479244162	1.9953355616279516	0.31504074630501244	0.13522740180057674	2.0053033903830597	0.2696333310854694	0.35001238239194926	2.096139341361525	0.07941803396119647	0.3445512011801669	1.2510757090591225	0.1012952608137616	0.3284108783313322	1.6205326371097453	0.13300025141819155	0.3390195590293612	2.0466010037344327	0.11026989125819991	0.1120707639174215	2.0253982250300884	0.05705653982860848	0.16950202158776403	2.0167526598866696	0.14528349591913234	0.3485118984422406	2.0847927319877626	0.1838708453914691	0.3798872424285233	0.6220111931544302	0.19462016211816138	0.3616213192049978	0.36832121714913607	0.1976526403761221	0.29552745545826564	0.49556456085513095	0.36817387854897116	0.38771417385866996	0.7143307350065188	0.4482410784078493	0.3773975136635393	0.9677581775956995	0.44712130063545497	0.19116691503212138	1.1144976828146342	0.4135890592219921	0.03269973774203473	1.1480208588315175	0.4249351949987874	0.042086652645814335	1.1674504481000176	0.44862137280871056	0.1744800833057992	1.2279983382942696	0.028865508476488624	0.3893763205618242	0.7157337598058875	-0.03845896692947296	0.3776919213051497	0.9809097574131096	-0.042873269472637594	0.2948569041640783	1.2220074689134353	0.03467309476997621	0.22530226458760177	1.2869988777235926	0.013921658302282517	0.21012022741656006	1.3115790264889051	-0.04122220298814378	0.2764332067194161	1.3501964418911852
43	0.7678571428571429	0.30061817889384174	0.33153956752983643	1.2240854020701126	0.31431767910773606	0.2981669253888778	1.605316957704746	0.28644921625511	0.324409875666543	2.022269346061898	0.2580062581786747	0.10099698769798683	1.9951421831620075	0.3151358357066565	0.13536707801731532	2.0051958452050194	0.2652617163701063	0.34785605353820365	2.09452592802117	0.07950973265825409	0.3447651678569554	1.2508556116595937	0.09820653554351555	0.31778172481698275	1.6142595079286912	0.13410125593435762	0.33911419293825185	2.0418922583615284	0.11033233472382062	0.1123849614957231	2.02566685354726	0.057011365088981754	0.1696359865544012	2.0168806603610547	0.1453219307921845	0.3486248956167137	2.0849407422630915	0.1838613440334041	0.3799142848197423	0.6221593818366664	0.19462127793683467	0.3615357468204405	0.36855000212925393	0.19768592955914288	0.2954568558539586	0.49562727614552105	0.3681993423799506	0.38774157352542415	0.7143163671152346	0.45188421852531924	0.38018784463558697	0.9646354732308677	0.44700674241656274	0.19099797302832974	1.1141884912615119	0.41235529840662555	0.03241823113872902	1.138423148035651	0.4198114542064108	0.03470917610712735	1.1514730314523127	0.4367270892414201	0.14277884775738292	1.2042616632171939	0.028828861799120635	0.38938070160095645	0.7157226361123966	-0.03871608763764438	0.37880107255584566	0.9782462610034113	-0.03788881201011233	0.2830322829492668	1.2165413229375899	0.03466477584698973	0.22514643811703722	1.287065302306719	0.009991789306159703	0.2080748759802888	1.3145421307971832	-0.040793096202767505	0.2766989868876231	1.3547530752571497
44	0.7857142857142857	0.2995192367621741	0.3308049390127801	1.2196037015144185	0.31406810849126454	0.2980113254626934	1.6049739981423419	0.2864822000713195	0.32452791569217065	2.0221012511428933	0.24994192171382032	0.08855369434623028	1.9851199814968963	0.3110019124061291	0.12629616060968735	1.9946176925199322	0.2650106431609305	0.34760150708591775	2.094241499502589	0.08307770777336036	0.3467401864039037	1.2469353885966712	0.09745949885031237	0.31733982100922126	1.6093545811702308	0.1330138361273802	0.3389347746761029	2.0463882908978217	0.11033729601593169	0.11229522892426169	2.0256099494087665	0.05706979557347314	0.16968505131356593	2.0169454738755777	0.14518777509384015	0.3482573761399606	2.084323067702597	0.18426599172935856	0.37967822225451603	0.6220798626357118	0.19784368316287798	0.3710390365567957	0.369423852739484	0.20148994922947291	0.2971892103312571	0.4959091938975336	0.3682356735188776	0.38779042468430286	0.7140775974907199	0.45174889495135	0.3803880699803797	0.9647772120263947	0.4456557600979899	0.17052939057295996	1.09371820972895	0.40580399162858904	0.02245750075778111	1.128640602535033	0.417702557070768	0.02367685988278294	1.1308954964895626	0.43391849363348944	0.12363304372969713	1.186128398213465	0.02899632315443568	0.38966893771967903	0.712360408624951	-0.03844609334208658	0.3779029093872331	0.9817736025287497	-0.03792679267364825	0.28292294274380436	1.2165867619715587	0.03471261525858328	0.22508157182295205	1.287056647935028	0.013916524825980103	0.21003712974572586	1.3115301372886419	-0.040707636203896364	0.2770122904465443	1.354982794376512
45	0.8035714285714286	0.29857014703619256	0.3297386818038168	1.2150830976974125	0.3141497173432081	0.29799217340517414	1.604992835037466	0.2822547885795311	0.3221839758579898	2.0204903847256848	0.2533380344815519	0.09794904723389274	1.9931042223613136	0.3175181729418951	0.14358557717618514	2.0080730945931164	0.2645803998937365	0.34670486695711866	2.092634667345789	0.08253458448140663	0.34631749014188484	1.2502032323249872	0.10119110079986857	0.32864719500231343	1.6202501948504733	0.13304011533025312	0.338982244049168	2.0465392694252142	0.11043630754238414	0.11229197041281003	2.0252857337072867	0.05712648642123392	0.16979268640721099	2.0168974535779807	0.14522252320346044	0.3484132894560526	2.0846976051309323	0.1843214477238581	0.3797140875216732	0.6220627254438834	0.19480420093342815	0.36161850312470367	0.3680253633658883	0.20155090896114994	0.2972001590065266	0.4959763433106212	0.36794017777135557	0.3887796235654249	0.710518817878623	0.4516619664129942	0.3820300550662637	0.9581254895557567	0.4450894076858379	0.15862098166892544	1.0843283857310024	0.40400378788966335	0.0073516659438157194	1.10639229806558	0.4170929469838739	0.023234556570457195	1.1296737751397325	0.4400380308602047	0.062493474612237546	1.1531503183453082	0.028860335253691992	0.38898422871137167	0.7153481462652674	-0.03840149823851205	0.37784911755735034	0.9817224893457176	-0.03803687010253362	0.2828634143902141	1.216471286257223	0.03471980092637241	0.225089014319134	1.2869661921867286	0.010614432709639791	0.20981528741432337	1.3076528809328962	-0.04109169650738561	0.2783322101529618	1.35126556413616
46	0.8214285714285714	0.29761792753317634	0.32884741928853467	1.2179389710434123	0.3137001466774172	0.2981175988857852	1.601337494222575	0.27824272015854923	0.3111085464201957	2.012460358478395	0.2532849629494289	0.09786316025015375	1.993042452693156	0.3174741290152797	0.14359119726169428	2.007821776009317	0.26074125734996223	0.3349993203720948	2.0836659101497013	0.07783645371933759	0.3442492776973834	1.2439497638828794	0.10119634394418248	0.328587784932609	1.620222257513169	0.13407281396388324	0.33900291981018493	2.0417623121229305	0.11022694356187134	0.11200686966307578	2.0249504632213697	0.057115516848828235	0.1697321821948371	2.0168693192207754	0.14513819023271773	0.3480727172632263	2.0843091679521515	0.1875457616808766	0.38997674589474046	0.6244622178909024	0.19798063072526786	0.3709994668242582	0.36913575460984815	0.20161799220516166	0.2972359722028419	0.49611675882149486	0.36823540476401617	0.38793684579516324	0.7137555979953727	0.4515654500526146	0.3822887560376342	0.9584213159775391	0.4433789746477383	0.16195323889538946	1.0668216456417163	0.3918550673821561	-0.012197964182148961	1.0726463688996895	0.4088880254505639	0.007898824092809982	1.1068980288956367	0.4340353182790328	0.04948301486835477	1.1419691715298286	0.028842127742260314	0.38876465442113906	0.7152081979152143	-0.039163131526464716	0.37816146221096264	0.982202386469168	-0.03795243243986967	0.2830139256718767	1.2165518993561002	0.034128870211834104	0.22445615791224283	1.2829592732217228	0.0136562036284962	0.21271064519762325	1.3053943484255193	-0.041357265859239406	0.2799066672718678	1.3478630662617341
